<svg width="16" height="14" viewBox="0 0 16 14" fill="none" xmlns="http://www.w3.org/2000/svg">
<path fill-rule="evenodd" clip-rule="evenodd" d="M15.4276 13.5482C14.7498 14.1506 13.6551 14.1506 12.9773 13.5482L8.05928 9.1515L3.14126 13.5482C2.45177 14.0761 1.42397 14.0406 0.782072 13.4668C0.140177 12.8929 0.100478 11.974 0.690946 11.3576L5.60896 6.9609L0.690946 2.56418C0.100478 1.94776 0.140177 1.02891 0.782072 0.455049C1.42397 -0.118808 2.45177 -0.1543 3.14126 0.373582L8.05928 4.77031L12.9773 0.373582C13.6668 -0.1543 14.6946 -0.118808 15.3365 0.455049C15.9784 1.02891 16.0181 1.94776 15.4276 2.56418L10.5096 6.9609L15.4276 11.3576C16.1014 11.9636 16.1014 12.9423 15.4276 13.5482Z" fill="#50555A"/>
</svg>
